# xmcd
#
# Track frame offsets: 
#        150
#        11509
#        23605
#        35063
#        48383
#        63015
#        73381
#        85860
#        97304
#        111687
#        137753
#        150019
#        161140
#        172397
#        184843
#        197121
#        210424
#        222986
#        234084
#        246334
#        257662
#        274245
#        289057
#        298237
#        312766
#
# Disc length: 4306 seconds
#
# Revision: 1
# Processed by: cddbd v1.5.2PL0 Copyright (c) Steve Scherf et al.
# Submitted via: ExactAudioCopy v1.0b1
#
DISCID=7d10d019
DTITLE=Patti Drew - Working On A Groovy Thing: Best of Patti Drew
DYEAR=2007
DGENRE=Soul
TTITLE0=Tell Him
TTITLE1=Stop And Listen
TTITLE2=Can't Shake It Loose
TTITLE3=Where Is Daddy
TTITLE4=My Lover's Prayer
TTITLE5=Sufferer
TTITLE6=Keep On Movin'
TTITLE7=There'll Never Be Another
TTITLE8=Workin' On A Groovy Thing
TTITLE9=Beggar For The Blues
TTITLE10=Fever
TTITLE11=Hard To Handle
TTITLE12=Just Can't Forget About You
TTITLE13=I've Been Here All The Time
TTITLE14=Midnight Confessions
TTITLE15=A Guy Like You
TTITLE16=The Love That A Woman Should Give To A Man
TTITLE17=He's The One (I Love)
TTITLE18=Which One Should I Choose
TTITLE19=Wild Is Love
TTITLE20=Hundreds And Thousands Of Guys
TTITLE21=It's Just A Dream
TTITLE22=It's My Time (The Drew-Vels)
TTITLE23=I've Known (The Drew-Vels)
TTITLE24=Tell Him (The Drew-Vels)
EXTD=Stateside (Capitol)
EXTT0=
EXTT1=
EXTT2=
EXTT3=
EXTT4=
EXTT5=
EXTT6=
EXTT7=
EXTT8=
EXTT9=
EXTT10=
EXTT11=
EXTT12=
EXTT13=
EXTT14=
EXTT15=
EXTT16=
EXTT17=
EXTT18=
EXTT19=
EXTT20=
EXTT21=
EXTT22=
EXTT23=
EXTT24=
PLAYORDER=
